<?xml version="1.0" standalone="no"?>
<!DOCTYPE svg PUBLIC "-//W3C//DTD SVG 20010904//EN"
 "http://www.w3.org/TR/2001/REC-SVG-20010904/DTD/svg10.dtd">
<svg version="1.0" xmlns="http://www.w3.org/2000/svg"
 width="300.000000pt" height="300.000000pt" viewBox="0 0 300.000000 300.000000"
 preserveAspectRatio="xMidYMid meet">
<metadata>
Created by potrace 1.11, written by Peter Selinger 2001-2013
</metadata>
<g transform="translate(0.000000,300.000000) scale(0.100000,-0.100000)"
fill="#000000" stroke="none">
<path d="M33 2517 c-4 -7 -8 -1626 -4 -1765 1 -16 7 -23 19 -21 30 3 42 -1 42
-12 0 -8 -5 -8 -15 1 -10 9 -15 9 -15 1 0 -12 10 -14 50 -13 18 1 21 -1 11 -7
-7 -5 -11 -13 -7 -19 3 -6 -2 -15 -11 -21 -11 -6 -13 -11 -5 -11 7 0 11 -4 8
-8 -2 -4 3 -8 12 -8 26 -1 46 -8 53 -18 9 -11 31 3 23 15 -3 5 -10 7 -15 4 -5
-4 -9 -1 -9 5 0 6 11 8 26 6 20 -4 24 -2 20 10 -3 9 -2 12 5 9 6 -4 8 -13 5
-21 -3 -8 0 -14 7 -14 19 1 47 26 40 36 -4 5 -1 3 7 -3 8 -7 22 -13 31 -13 10
0 20 -6 22 -12 3 -7 4 0 3 15 -2 16 -9 32 -16 37 -10 6 -9 9 1 14 8 3 4 4 -9
2 -26 -5 -21 9 7 17 15 3 19 0 16 -13 -2 -10 3 -21 11 -24 10 -4 12 -2 8 6 -4
6 2 18 12 26 16 12 16 14 2 9 -10 -3 -20 -2 -23 3 -3 5 -18 7 -33 4 -24 -4
-25 -3 -10 9 10 8 14 18 10 22 -4 5 4 1 18 -8 36 -25 45 -21 14 6 l-26 23 28
34 c16 19 23 30 15 25 -11 -6 -13 -4 -8 8 4 11 2 14 -9 10 -10 -4 -12 0 -8 11
3 9 10 14 14 11 5 -3 12 0 16 6 4 8 3 9 -4 5 -7 -4 -12 -3 -12 3 0 5 6 11 12
14 7 2 9 8 5 13 -4 5 -12 2 -16 -5 -5 -8 -11 -9 -15 -3 -3 5 1 15 9 22 7 6 11
19 8 27 -4 11 -2 14 5 9 7 -4 12 -3 12 3 0 6 -10 9 -22 8 -13 -1 -24 2 -25 7
-1 5 -7 13 -15 18 -10 7 -10 8 2 6 21 -4 80 40 80 60 0 15 -2 15 -10 2 -9 -13
-10 -13 -10 0 0 12 -2 12 -9 1 -6 -9 -11 -10 -15 -2 -4 6 -2 12 3 12 6 1 16 3
21 4 6 1 13 3 18 4 4 1 -4 8 -18 16 -28 16 -19 21 10 5 15 -8 22 -5 34 12 9
12 16 18 16 12 0 -5 -5 -15 -12 -22 -8 -8 -8 -12 -1 -12 6 0 18 10 26 22 15
22 15 22 10 2 -2 -12 -16 -27 -30 -33 -25 -11 -27 -33 -5 -37 7 -1 8 0 2 3 -5
2 -10 9 -10 14 0 6 4 8 9 5 5 -4 11 -1 13 6 3 7 12 9 22 5 10 -4 14 -12 10
-18 -4 -8 -3 -9 4 -5 8 5 9 13 3 25 -5 9 -6 23 -2 29 8 14 41 6 41 -10 0 -6
-6 -6 -14 1 -10 8 -16 9 -21 1 -3 -5 1 -10 10 -10 9 0 14 -4 11 -9 -3 -5 2
-15 11 -22 9 -8 14 -9 10 -3 -4 7 0 15 9 18 12 5 14 1 10 -17 -3 -12 -3 -16 0
-9 3 6 10 10 15 7 5 -4 6 2 2 12 -6 15 -5 16 9 5 14 -11 16 -10 13 5 -1 10 -8
17 -14 16 -6 -2 -11 2 -11 7 0 17 18 11 33 -11 8 -11 18 -16 21 -11 3 6 2 12
-3 14 -6 1 -1 14 10 28 17 21 19 22 10 3 -15 -30 -14 -38 4 -23 12 10 18 10
30 0 18 -15 20 0 3 20 -7 8 -3 6 10 -4 25 -21 24 -25 -7 -31 -12 -2 -19 0 -16
6 4 5 2 9 -4 9 -17 0 -33 -38 -19 -46 6 -4 8 -3 4 4 -3 6 -2 13 4 17 5 3 10
-2 11 -12 0 -14 2 -15 7 -3 4 8 15 16 26 18 10 2 15 -1 12 -7 -4 -5 -2 -13 4
-16 6 -4 10 -3 9 2 -1 4 0 11 1 16 6 19 5 33 -5 39 -5 4 -1 6 11 6 14 -1 20
-9 20 -25 0 -13 -3 -23 -7 -23 -9 0 -5 -27 6 -37 4 -5 5 -2 0 6 -6 11 -4 13
10 7 15 -5 16 -4 5 9 -8 10 -9 15 -1 15 6 0 11 5 11 11 0 5 -5 7 -11 3 -7 -4
-7 1 1 16 7 13 17 19 27 16 8 -3 17 -6 19 -6 3 0 2 -5 -2 -11 -4 -8 -9 -7 -15
2 -4 7 -11 10 -16 6 -4 -5 -2 -12 5 -16 7 -4 10 -16 7 -27 -4 -13 -2 -12 6 3
7 13 18 23 26 23 7 0 12 3 10 8 -1 4 2 7 8 7 5 0 9 -3 8 -7 -2 -5 4 -8 13 -8
9 0 12 -5 8 -11 -5 -8 -2 -9 12 -1 14 8 23 7 35 -4 13 -12 18 -12 35 1 13 10
14 14 4 12 -8 -2 -12 -2 -7 0 4 3 5 9 1 14 -3 5 0 9 5 9 6 0 11 -5 11 -11 0
-6 6 -7 13 -2 6 4 3 -6 -7 -22 l-19 -30 21 19 c22 19 32 10 11 -11 -8 -8 -7
-13 2 -18 8 -6 10 -4 4 5 -6 10 -4 12 8 7 14 -5 15 -2 7 19 -13 32 -13 54 0
54 5 0 7 -6 4 -13 -3 -9 4 -13 21 -13 14 0 25 3 25 6 0 3 9 6 20 7 11 1 20 -2
20 -6 0 -8 -9 -10 -55 -13 -27 -2 -29 -6 -15 -28 9 -13 10 -13 10 0 0 9 9 16
19 17 15 1 18 -3 14 -15 -4 -10 2 -7 14 7 13 17 22 21 27 13 4 -7 2 -12 -3
-12 -6 0 -11 -8 -11 -17 0 -15 2 -16 10 -3 9 14 14 7 11 -13 -1 -5 3 -6 9 -2
8 5 7 11 -1 21 -8 10 -8 14 0 14 6 0 11 5 11 11 0 5 -5 7 -10 4 -14 -9 -25 24
-12 37 8 8 9 4 6 -13 -5 -19 -4 -21 5 -9 7 10 11 11 11 3 0 -7 5 -13 11 -13 5
0 7 5 3 12 -4 7 -3 8 5 4 9 -6 9 -11 1 -22 -7 -7 -10 -19 -7 -26 3 -8 6 -5 6
6 1 16 3 17 18 5 14 -12 16 -12 8 0 -6 11 -4 13 8 8 9 -3 19 -2 22 3 4 6 11
10 17 10 6 0 5 -7 -3 -17 -11 -16 -11 -16 1 -5 12 10 17 9 30 -8 15 -20 16
-20 16 -1 0 11 -4 18 -7 15 -4 -2 -10 0 -13 5 -3 5 1 11 9 15 8 3 19 -3 24
-12 9 -14 11 -14 12 -2 1 8 1 18 0 23 -2 13 11 8 26 -10 13 -16 13 -16 3 5 -8
16 -8 22 0 22 6 0 8 5 3 13 -4 6 6 4 21 -7 16 -10 25 -13 22 -7 -10 15 7 14
23 -1 8 -7 6 -1 -4 15 -10 16 -13 27 -6 27 6 0 11 -6 11 -12 1 -9 5 -8 13 3 7
9 19 14 27 12 11 -3 10 -1 -2 7 -17 11 -22 70 -6 70 5 0 6 6 2 13 -5 8 -2 8 9
-2 18 -14 23 -26 8 -16 -5 3 -13 1 -16 -5 -4 -6 -3 -10 2 -9 22 4 25 -2 7 -16
-10 -8 -14 -15 -7 -15 6 0 15 5 18 10 4 6 12 7 18 3 7 -4 5 2 -3 12 -14 17
-13 18 2 12 12 -4 15 -2 11 8 -3 8 -9 13 -13 10 -4 -3 -10 2 -13 10 -4 10 -1
12 11 9 14 -5 15 -4 2 5 -8 6 -24 8 -35 6 -11 -3 -14 -2 -7 1 6 3 10 10 7 15
-4 5 1 6 9 3 9 -3 16 -1 16 5 0 6 -4 11 -10 11 -5 0 -10 5 -10 11 0 8 5 7 15
-1 9 -7 14 -18 12 -25 -3 -6 5 -12 16 -13 12 0 17 2 11 6 -6 4 -17 18 -23 31
-10 18 -10 25 0 35 9 8 10 8 5 -1 -10 -18 2 -33 19 -27 12 5 12 8 -1 22 -15
15 -15 17 3 32 16 13 17 18 7 28 -11 10 -15 8 -23 -7 -6 -10 -8 -21 -5 -23 3
-3 -2 -8 -11 -12 -13 -4 -14 -2 -5 13 7 14 6 21 -3 24 -6 3 -3 6 8 7 l20 1
-20 16 c-16 13 -17 15 -2 10 9 -4 17 -2 17 3 0 6 -4 10 -8 10 -12 0 -12 39 -1
46 6 4 6 11 -2 20 -9 11 -8 14 2 14 10 1 9 5 -4 14 -16 13 -16 14 -1 20 13 5
15 9 6 18 -16 16 -15 28 3 28 8 0 15 -5 15 -11 0 -5 5 -7 11 -3 8 5 8 9 -1 14
-9 5 -9 9 -1 14 6 4 9 12 5 17 -3 5 -10 7 -15 3 -5 -3 -6 -11 -2 -17 4 -7 0
-6 -10 2 -18 14 -13 36 5 25 8 -5 9 -1 5 10 -4 10 -7 20 -7 22 0 3 -6 2 -12
-2 -10 -5 -10 -4 -1 6 9 9 9 18 1 33 -7 15 -7 22 3 28 11 6 11 11 1 21 -9 9
-7 17 11 36 l22 24 -22 -6 c-15 -5 -23 -3 -23 4 0 6 5 8 12 4 8 -5 9 -2 4 11
-7 18 -6 18 14 0 26 -23 26 -11 0 23 l-20 25 22 26 23 25 -27 -17 c-33 -21
-36 -15 -8 15 11 12 20 29 20 37 0 11 -4 10 -14 -5 -8 -10 -18 -16 -22 -11 -4
4 -2 7 4 7 7 0 12 5 12 11 0 5 -4 8 -8 5 -4 -2 -8 6 -8 20 0 13 4 24 9 24 5 0
6 -8 3 -17 -5 -15 -4 -15 9 1 18 24 19 37 3 33 -7 -1 -13 5 -13 13 0 8 -4 21
-9 29 -6 10 -5 12 2 7 19 -12 14 34 -6 52 -9 10 -13 14 -8 10 17 -13 26 -9 26
13 0 12 4 17 11 13 6 -3 4 8 -5 24 -9 17 -21 34 -27 38 -7 4 -9 3 -5 -4 3 -6
2 -14 -4 -17 -6 -4 -9 -1 -8 7 2 7 -3 12 -10 10 -10 -2 -10 2 0 19 11 17 11
23 0 26 -6 3 -10 9 -6 14 3 5 0 9 -6 9 -6 0 -18 7 -27 15 -8 8 -19 12 -25 9
-7 -4 -8 -2 -4 5 4 6 0 14 -8 17 -9 3 -16 10 -16 16 0 5 5 6 10 3 5 -3 10 -1
10 4 0 6 -4 11 -10 11 -5 0 -12 0 -15 0 -5 0 -52 39 -87 73 -10 9 -18 14 -18
11 0 -4 -6 -2 -12 3 -7 6 -26 14 -43 19 -41 11 -1105 13 -1112 1z m1347 -201
c0 -2 -7 -7 -16 -10 -8 -3 -12 -2 -9 4 6 10 25 14 25 6z m-530 -72 c0 -8 -5
-14 -10 -14 -6 0 -5 -9 2 -22 7 -13 14 -25 15 -27 1 -2 16 -5 32 -6 17 -1 28
1 25 6 -3 5 -10 7 -15 4 -5 -4 -9 -2 -9 3 0 12 30 37 30 26 1 -5 7 2 15 16 11
19 14 21 15 8 0 -10 3 -18 8 -17 22 3 50 -14 45 -29 -5 -13 -9 -12 -23 6 -10
12 -20 18 -24 15 -9 -10 -7 -25 3 -19 5 4 11 2 13 -4 5 -15 46 -21 54 -8 4 7
2 8 -4 4 -7 -4 -12 -3 -12 2 0 10 24 22 43 22 8 0 7 -3 -2 -9 -9 -6 -6 -8 12
-8 14 0 28 6 32 15 4 11 2 12 -7 4 -10 -8 -16 -4 -25 14 -8 17 -8 26 -1 31 6
3 8 1 5 -4 -4 -6 0 -16 8 -23 12 -10 15 -9 15 4 0 9 4 16 10 16 5 0 6 -7 3
-17 -4 -9 -2 -14 3 -11 17 11 39 -17 40 -49 0 -19 -4 -29 -10 -26 -6 3 -5 0 1
-7 10 -11 10 -17 0 -29 -6 -8 -7 -12 -1 -8 7 4 10 -87 10 -313 l-1 -318 -24
-21 c-13 -12 -31 -22 -40 -22 -65 -5 -659 -3 -655 2 2 4 -12 3 -31 -1 -27 -6
-40 -4 -57 10 -13 9 -29 15 -35 13 -7 -3 -13 0 -13 5 0 11 18 11 38 -1 14 -9
15 -6 6 17 -3 9 -11 13 -18 9 -6 -4 -5 0 2 9 11 14 10 18 -5 27 -10 6 -13 11
-6 11 6 0 14 -4 18 -9 7 -12 45 -10 45 2 0 5 -7 7 -15 4 -8 -4 -17 -2 -20 3
-6 9 8 14 28 11 5 -1 5 4 1 10 -5 9 -2 10 12 6 18 -7 18 -6 2 6 -10 8 -14 18
-10 23 4 4 0 3 -9 -4 -14 -10 -18 -10 -23 3 -3 8 -2 22 1 32 5 12 3 14 -7 8
-8 -5 -11 -4 -6 3 3 6 -2 13 -11 15 -14 4 -13 5 4 6 12 0 26 -6 31 -15 8 -15
10 -15 15 0 5 12 3 15 -5 10 -7 -5 -9 -2 -5 9 4 11 2 14 -9 10 -10 -4 -12 0
-8 11 3 9 10 14 14 11 5 -3 12 0 16 6 4 8 3 9 -4 5 -7 -4 -12 -2 -12 3 0 6 6
11 13 11 8 0 7 4 -3 10 -13 8 -13 10 2 10 9 0 19 4 22 9 4 5 -10 4 -29 -2 -19
-6 -35 -15 -35 -20 0 -5 7 -7 15 -3 13 4 14 2 5 -14 -14 -26 -49 -45 -46 -25
1 8 6 18 11 22 4 4 5 2 1 -4 -4 -7 -3 -13 2 -13 16 0 22 13 11 27 -9 9 -8 17
0 27 10 11 8 17 -6 25 -10 6 -13 11 -6 11 6 0 14 -4 18 -9 7 -12 45 -10 45 2
0 5 -7 7 -15 4 -8 -4 -17 -2 -20 3 -6 9 8 14 28 11 5 -1 5 4 1 10 -5 9 -2 10
12 6 18 -7 18 -6 2 6 -10 8 -14 18 -10 23 4 4 0 3 -9 -4 -14 -10 -18 -10 -23
3 -3 8 -2 22 1 32 5 12 3 14 -7 8 -8 -5 -11 -4 -6 3 3 6 -2 13 -11 15 -14 4
-13 5 4 6 12 0 26 -6 31 -15 8 -15 10 -15 15 0 5 12 3 15 -5 10 -7 -5 -9 -2
-5 9 4 11 2 14 -9 10 -10 -4 -12 0 -8 12 7 17 6 17 -19 1 -22 -15 -25 -15 -23
-2 1 9 6 19 11 23 4 4 5 2 1 -4 -4 -7 -3 -13 2 -13 17 0 22 13 10 27 -6 7 -8
16 -4 20 3 3 6 1 6 -5 0 -21 16 -13 17 8 1 13 -2 18 -9 14 -6 -4 -8 -3 -4 4 3
6 -2 13 -11 15 -14 4 -13 5 4 6 12 0 27 -7 33 -16 9 -15 10 -14 4 7 -6 22 -5
23 9 11 9 -7 14 -18 10 -24 -4 -6 -1 -7 6 -3 9 6 9 12 -3 25 -13 14 -13 20 -3
31 6 8 3 7 -9 -3 -19 -16 -45 -25 -31 -10 4 3 0 17 -9 31 -9 13 -11 21 -5 18
6 -4 11 0 11 9 0 9 -4 14 -8 11 -5 -3 -9 1 -9 8 0 11 5 11 17 4 10 -6 16 -22
15 -38 -1 -25 0 -27 17 -17 15 10 16 13 3 15 -8 2 -15 8 -15 13 0 6 5 7 12 3
6 -4 8 -3 4 4 -3 6 2 18 11 28 17 17 17 17 1 11 -10 -3 -20 -2 -23 3 -7 12 17
19 36 9 10 -5 16 -3 16 6 0 7 -6 11 -14 8 -7 -3 -13 -1 -13 5 0 18 29 21 39 4
10 -16 10 -16 11 1 0 9 -5 17 -12 17 -16 0 -1 13 18 16 9 1 13 -3 11 -10 -3
-7 1 -13 9 -13 8 0 13 6 10 14 -7 18 14 16 44 -4 14 -9 19 -10 13 -3 -24 26
-13 31 20 9 17 -12 26 -16 20 -9 -21 23 -15 30 27 30 44 0 94 -26 83 -43 -3
-6 -1 -7 5 -3 9 5 9 12 0 26 -7 10 -14 18 -17 17 -4 -1 -7 3 -7 8 -1 6 3 9 8
7 6 -2 8 5 4 15 -5 16 -4 16 7 3 16 -20 41 -25 34 -7 -3 7 1 14 8 14 7 0 11
-6 9 -12 -3 -6 2 -12 11 -12 11 0 14 7 10 21 -5 18 -4 17 8 -3 l14 -24 22 22
c22 22 30 15 9 -8 -11 -11 -10 -14 0 -18 6 -3 10 -9 6 -14 -8 -13 -24 -11 -21
3 2 12 -51 20 -58 8 -3 -4 8 -16 23 -25 15 -10 21 -12 15 -4 -20 21 -15 34 6
15 18 -16 51 -13 51 6 0 5 5 6 12 2 7 -4 8 -3 4 5 -4 6 -12 9 -17 6 -5 -4 -9
-2 -9 3 0 6 7 13 16 16 9 4 14 13 10 22 -3 8 -2 12 4 9 6 -3 10 -13 10 -21z
m-269 2 c-9 -11 -9 -15 1 -19 8 -3 8 -6 2 -6 -6 -1 -18 7 -25 16 -8 10 -9 14
-2 10 6 -4 14 -3 18 3 3 5 9 10 12 10 3 0 0 -6 -6 -14z m425 2 c5 4 6 3 2 -2
-4 -5 0 -15 10 -22 9 -7 12 -14 6 -14 -5 0 -20 9 -32 20 -24 22 -31 40 -9 21
8 -6 18 -7 23 -3z m-636 -2 c0 -2 -7 -7 -16 -10 -8 -3 -12 -2 -9 4 6 10 25 14
25 6z m94 -10 c-4 -10 0 -13 13 -11 10 2 22 4 26 4 5 1 5 6 1 13 -4 7 -3 8 4
4 9 -5 9 -13 1 -27 -8 -16 -14 -18 -24 -9 -8 7 -15 7 -19 1 -4 -5 -15 -8 -26
-6 -10 2 -24 -3 -31 -11 -9 -11 -15 -12 -26 -2 -12 9 -14 9 -13 -3 4 -27 0
-36 -25 -47 -30 -14 -46 -16 -26 -3 7 5 14 22 14 37 0 16 2 23 4 16 4 -10 8
-10 19 -1 8 6 12 15 9 19 -3 5 0 12 6 16 7 4 10 3 7 -2 -3 -5 -1 -14 6 -20 14
-12 40 8 28 22 -4 5 1 2 11 -5 16 -13 19 -12 24 7 3 12 9 22 14 22 5 0 6 -6 3
-14z m151 4 c-3 -5 -1 -10 6 -10 7 0 10 -3 6 -6 -9 -9 -28 6 -22 17 4 5 8 9
11 9 3 0 2 -4 -1 -10z m270 0 c-3 -5 -1 -10 4 -10 6 0 11 5 11 12 0 6 3 9 6 5
3 -3 -2 -20 -12 -37 -17 -28 -20 -29 -31 -14 -11 15 -10 21 4 36 17 19 28 24
18 8z m156 -7 c13 -16 12 -17 -3 -4 -10 7 -18 15 -18 17 0 8 8 3 21 -13z m400
-30 c-8 -15 -10 -11 -9 15 1 26 3 30 10 18 5 -10 5 -23 -1 -33z m-891 19 c0
-13 -12 -22 -22 -16 -10 6 -1 24 13 24 5 0 9 -4 9 -8z m864 -60 c3 -5 -1 -9
-9 -9 -8 0 -12 4 -9 9 3 4 7 8 9 8 2 0 6 -4 9 -8z m-1054 -53 c0 -6 -4 -7 -10
-4 -5 3 -10 11 -10 16 0 6 5 7 10 4 6 -3 10 -11 10 -16z m1067 -41 c-3 -7 -5
-2 -5 12 0 14 2 19 5 13 2 -7 2 -19 0 -25z m-1113 -39 c-3 -5 -11 -9 -17 -8
-9 0 -9 2 0 6 10 3 10 10 2 26 -10 21 -9 21 5 3 9 -10 13 -23 10 -27z m-4 -43
c0 -3 -4 -8 -10 -11 -5 -3 -10 -1 -10 4 0 6 5 11 10 11 6 0 10 -2 10 -4z
m1113 -11 c4 -8 3 -16 -1 -19 -4 -3 -9 4 -9 15 -2 23 3 25 10 4z m-1113 -109
c0 -3 -4 -8 -10 -11 -5 -3 -10 -1 -10 4 0 6 5 11 10 11 6 0 10 -2 10 -4z m25
-56 c4 -6 12 -7 18 -4 8 5 9 4 2 -3 -5 -6 -23 -13 -40 -17 -30 -6 -30 -6 -6 8
18 10 20 15 10 19 -8 3 -9 6 -2 6 6 1 15 -4 18 -9z m1089 -16 c3 -8 2 -12 -4
-9 -6 3 -10 10 -10 16 0 14 7 11 14 -7z m-1114 -48 c0 -3 -4 -8 -10 -11 -5 -3
-10 -1 -10 4 0 6 5 11 10 11 6 0 10 -2 10 -4z m1115 -6 c3 -5 1 -10 -4 -10 -6
0 -11 5 -11 10 0 6 2 10 4 10 3 0 8 -4 11 -10z m-2 -85 c4 -8 3 -16 -1 -19 -4
-3 -9 4 -9 15 -2 23 3 25 10 4z m-1113 -29 c0 -3 -4 -8 -10 -11 -5 -3 -10 -1
-10 4 0 6 5 11 10 11 6 0 10 -2 10 -4z m25 -56 c4 -6 12 -7 18 -4 8 5 9 4 2
-3 -5 -6 -23 -13 -40 -17 -30 -6 -30 -6 -6 8 18 10 20 15 10 19 -8 3 -9 6 -2
6 6 1 15 -4 18 -9z m1088 -35 c4 -8 3 -16 -1 -19 -4 -3 -9 4 -9 15 -2 23 3 25
10 4z m-1113 -29 c0 -3 -4 -8 -10 -11 -5 -3 -10 -1 -10 4 0 6 5 11 10 11 6 0
10 -2 10 -4z m1100 -126 c0 -5 -5 -10 -11 -10 -5 0 -7 5 -4 10 3 6 8 10 11 10
2 0 4 -4 4 -10z m-31 -147 c-1 -10 -1 -21 0 -25 2 -15 -4 -23 -19 -23 -8 0
-16 -6 -16 -12 -2 -23 -4 -24 -14 -18 -8 5 -7 11 1 21 9 11 8 14 -7 15 -11 1
-23 1 -27 0 -5 -1 -6 3 -2 8 3 7 15 7 30 1 21 -8 25 -5 37 20 15 34 20 38 17
13z m-38 -16 c-10 -9 -11 -8 -5 6 3 10 9 15 12 12 3 -3 0 -11 -7 -18z m-44
-48 c-9 -6 -15 -14 -12 -19 3 -4 -2 -11 -11 -14 -9 -3 -12 -11 -8 -18 5 -9 3
-9 -9 1 -13 10 -20 11 -31 2 -11 -9 -16 -9 -21 0 -6 8 -10 8 -15 -2 -5 -7 -18
-13 -29 -14 -11 -1 -18 2 -15 7 3 5 0 17 -7 26 -11 14 -11 15 1 5 11 -10 17
-10 29 0 14 10 14 10 3 -5 -8 -10 -9 -19 -3 -22 5 -4 13 4 16 15 7 20 8 20 17
6 8 -16 11 -16 33 -1 14 9 25 13 25 8 0 -5 7 2 16 14 8 12 21 22 27 22 7 0 4
-5 -6 -11z m-63 -8 c3 -5 -1 -11 -9 -14 -9 -4 -12 -1 -8 9 6 16 10 17 17 5z
m-209 -22 c-4 -5 -12 -9 -18 -8 -9 0 -8 2 1 6 6 2 9 10 6 15 -4 7 -2 8 5 4 6
-4 9 -12 6 -17z m-620 1 c-3 -5 -12 -10 -18 -10 -7 0 -6 4 3 10 19 12 23 12
15 0z m185 0 c0 -5 -2 -10 -4 -10 -3 0 -8 5 -11 10 -3 6 -1 10 4 10 6 0 11 -4
11 -10z m277 -8 c-5 15 -3 16 18 6 13 -6 23 -18 22 -29 -1 -16 -3 -17 -17 -4
-9 8 -19 13 -22 10 -3 -3 -13 5 -24 17 l-19 23 24 -20 c21 -17 23 -17 18 -3z
m-323 -19 c4 -10 4 -14 0 -11 -4 4 -16 3 -28 -3 -19 -9 -19 -9 -4 4 10 8 15
17 11 20 -3 4 -2 7 4 7 6 0 14 -8 17 -17z m-218 -20 c-2 -9 -9 -19 -17 -21 -9
-2 -10 -1 -3 5 6 4 10 16 8 26 -1 9 1 15 6 12 5 -3 7 -13 6 -22z m44 -35 c0
-7 -9 -10 -26 -7 -4 0 -10 -5 -14 -11 -5 -8 -9 -7 -13 5 -4 9 -3 13 3 10 6 -3
10 -2 10 4 0 5 9 9 20 8 11 -1 20 -5 20 -9z m-66 -90 c-5 -8 -2 -9 10 -5 23 9
43 -2 25 -14 -16 -9 -52 8 -44 22 4 5 8 9 11 9 3 0 2 -5 -2 -12z m36 -69 c0
-4 -7 -12 -15 -19 -10 -9 -15 -9 -15 -1 0 6 5 11 10 11 6 0 5 6 -2 14 -7 8
-16 12 -19 10 -3 -2 -6 3 -6 11 0 10 5 10 23 -3 13 -9 24 -20 24 -23z m-36
-50 c-4 -7 0 -9 14 -5 11 4 23 2 27 -4 3 -5 3 -10 -2 -11 -4 0 -18 -2 -29 -3
-15 -2 -21 2 -19 13 5 22 4 21 11 21 3 0 2 -5 -2 -11z m6 -63 c0 -3 -4 -8 -10
-11 -5 -3 -10 -1 -10 4 0 6 5 11 10 11 6 0 10 -2 10 -4z m-171 -122 c-14 -17
2 -19 21 -1 12 10 12 9 2 -4 -6 -9 -8 -19 -4 -23 4 -4 -6 -2 -21 5 -23 10 -25
14 -12 21 8 5 12 14 9 20 -4 7 -2 8 5 4 9 -6 9 -11 0 -22z m179 13 c14 4 14 3
2 -5 -16 -12 -30 -7 -29 11 0 9 2 9 5 0 3 -7 13 -9 22 -6z"/>
<path d="M670 2214 c0 -2 15 -13 33 -25 20 -15 27 -17 19 -7 -8 10 -11 21 -9
26 3 4 -5 8 -19 8 -13 0 -24 -1 -24 -2z"/>
<path d="M935 2210 c-4 -6 -11 -7 -17 -4 -7 4 -8 2 -4 -4 10 -16 23 -15 30 3
6 17 0 20 -9 5z"/>
<path d="M1109 2217 c-2 -12 -6 -22 -14 -40 -4 -10 -5 -21 -1 -24 3 -4 6 1 6
10 0 9 8 20 18 26 14 8 15 12 5 22 -7 7 -14 10 -14 6z"/>
<path d="M571 2197 c2 -1 13 -9 24 -17 19 -14 19 -14 6 3 -7 9 -18 17 -24 17
-6 0 -8 -1 -6 -3z"/>
<path d="M610 2196 c0 -3 9 -10 20 -16 11 -6 20 -8 20 -6 0 3 -9 10 -20 16
-11 6 -20 8 -20 6z"/>
<path d="M830 2181 c0 -6 4 -13 10 -16 6 -3 7 1 4 9 -7 18 -14 21 -14 7z"/>
<path d="M1055 2169 c-4 -6 -5 -12 -2 -15 2 -3 7 2 10 11 7 17 1 20 -8 4z"/>
<path d="M355 1960 c3 -5 1 -10 -5 -10 -7 0 -10 -5 -8 -11 6 -19 21 -14 24 9
2 12 -1 22 -7 22 -5 0 -7 -4 -4 -10z"/>
<path d="M375 1919 c-4 -6 -5 -12 -2 -15 2 -3 7 2 10 11 7 17 1 20 -8 4z"/>
<path d="M346 1841 c-4 -5 3 -7 14 -4 23 6 26 13 6 13 -8 0 -17 -4 -20 -9z"/>
<path d="M375 1679 c-4 -6 -5 -12 -2 -15 2 -3 7 2 10 11 7 17 1 20 -8 4z"/>
<path d="M346 1601 c-4 -5 3 -7 14 -4 23 6 26 13 6 13 -8 0 -17 -4 -20 -9z"/>
<path d="M365 1501 c-11 -5 -23 -7 -28 -4 -4 2 1 -11 10 -30 10 -19 20 -31 22
-25 2 5 -2 15 -8 21 -15 15 -14 27 3 27 8 0 18 5 21 10 7 11 7 11 -20 1z"/>
<path d="M345 2169 c-11 -17 1 -21 15 -4 8 9 8 15 2 15 -6 0 -14 -5 -17 -11z"/>
<path d="M866 2221 c-4 -5 -2 -12 3 -15 5 -4 12 -2 15 3 4 5 2 12 -3 15 -5 4
-12 2 -15 -3z"/>
<path d="M1499 2526 c-1 0 -2 -55 -4 -122 -1 -67 -6 -127 -10 -134 -5 -9 -4
-11 3 -6 19 11 14 -5 -5 -21 -10 -8 -12 -12 -5 -8 14 7 14 9 16 -116 1 -68 -2
-96 -11 -96 -8 0 -9 6 -2 19 15 28 3 21 -16 -9 -10 -16 -14 -25 -10 -21 4 4
17 2 28 -4 20 -10 20 -11 -4 -29 -13 -11 -17 -17 -8 -14 13 5 16 -2 16 -35 0
-23 -3 -36 -8 -29 -4 7 -4 19 -1 28 5 14 3 14 -11 2 -16 -12 -15 -15 4 -43
l21 -29 -26 -28 c-20 -21 -23 -30 -14 -39 9 -9 9 -15 0 -24 -8 -8 -8 -16 0
-32 6 -12 12 -23 12 -26 0 -3 6 -4 12 -2 17 4 27 -15 13 -24 -8 -5 -9 -3 -4 6
5 8 4 11 -3 6 -6 -4 -9 -13 -6 -21 4 -8 9 -13 13 -11 9 6 8 -131 -1 -140 -5
-4 -8 -11 -8 -16 0 -5 3 -7 8 -5 9 7 9 -164 -1 -181 -5 -6 -4 -12 2 -12 11 0
5 -65 -7 -84 -3 -5 0 -6 6 -2 7 4 12 2 12 -3 0 -6 -6 -11 -12 -11 -8 0 -9 -3
-3 -8 6 -4 10 -82 10 -197 l0 -190 35 -5 c33 -5 34 -6 15 -18 -19 -12 -19 -13
3 -7 18 5 22 2 22 -14 0 -12 3 -20 8 -20 20 3 31 -3 37 -22 6 -17 13 -20 41
-17 19 2 34 0 34 -4 0 -7 -15 -12 -32 -9 -4 0 -5 -6 -1 -15 5 -13 7 -13 14 -2
7 10 12 11 29 1 25 -16 27 -16 34 3 5 14 4 15 -8 5 -17 -15 -28 -1 -15 19 5
10 9 11 9 3 0 -7 7 -10 15 -7 16 7 17 -19 2 -43 -5 -8 -4 -13 2 -13 6 0 11 5
11 11 0 8 6 7 18 -2 9 -7 14 -9 10 -5 -4 5 -3 15 3 23 10 11 17 10 43 -6 l32
-20 1 22 c0 12 -1 16 -4 10 -3 -7 -9 -13 -14 -13 -6 0 -7 5 -3 12 4 6 3 8 -2
5 -6 -3 -11 4 -11 16 -2 20 -1 20 8 4 9 -15 13 -16 27 -5 13 11 14 11 7 -1 -6
-10 -4 -13 6 -9 8 3 26 0 40 -8 29 -16 39 -17 39 -3 0 5 -3 8 -8 5 -4 -2 -16
2 -27 10 -10 8 -13 14 -6 14 7 0 9 5 5 12 -4 7 5 2 21 -12 25 -22 28 -23 22
-5 -6 17 -5 18 5 4 11 -15 13 -15 29 4 l16 21 -1 -24 c-1 -19 -6 -25 -23 -24
-13 1 -23 -2 -23 -6 0 -9 100 -6 122 4 10 5 15 12 12 18 -3 5 -12 4 -21 -4 -8
-6 -25 -14 -36 -15 -21 -3 -20 -2 3 14 28 20 48 25 55 13 2 -4 16 -6 30 -5 14
2 25 -1 25 -7 0 -7 5 -7 13 1 10 8 17 7 25 -1 13 -13 17 2 5 18 -5 5 -1 2 8
-8 9 -9 20 -14 24 -10 5 4 5 2 1 -5 -3 -6 -15 -10 -26 -8 -11 2 -20 -1 -20 -7
0 -5 6 -8 14 -5 21 8 28 -4 9 -18 -13 -9 -13 -14 -3 -20 9 -5 11 -4 6 3 -7 11
6 17 28 13 5 -1 4 5 -4 13 -10 13 -10 16 4 16 10 0 14 4 11 10 -4 6 1 7 12 3
16 -6 17 -5 3 13 -14 19 -14 19 7 1 21 -18 22 -18 42 2 12 12 21 17 21 13 0
-4 -5 -13 -12 -20 -16 -16 4 -16 21 1 8 7 11 7 8 1 -4 -7 3 -11 18 -11 14 0
23 2 21 6 -2 3 7 7 20 7 13 1 24 -2 24 -8 0 -5 -5 -6 -12 -2 -7 4 -8 3 -4 -4
5 -8 1 -10 -11 -6 -14 4 -15 4 -4 -4 11 -8 11 -10 0 -15 -8 -3 -9 -6 -3 -6 17
-1 51 32 47 46 -2 6 1 14 6 18 6 3 8 0 5 -8 -3 -8 -1 -18 5 -22 6 -3 11 -12
11 -18 0 -7 -4 -6 -10 3 -5 8 -10 11 -10 5 0 -5 4 -15 8 -22 6 -9 11 -7 20 7
7 12 8 21 2 25 -13 8 -13 25 0 25 6 0 9 -5 8 -11 -2 -6 3 -14 11 -17 9 -3 11
0 7 7 -4 6 -3 10 3 9 5 -2 17 6 26 17 16 20 16 20 6 -2 -7 -14 -8 -24 -1 -28
5 -3 10 -1 10 5 0 7 6 10 14 7 7 -3 19 0 25 6 9 9 10 8 5 -7 -4 -12 -4 -17 2
-13 6 3 16 1 24 -4 11 -7 7 -8 -12 -5 -16 3 -28 1 -28 -3 0 -14 49 -9 61 5 9
11 8 14 -4 14 -31 0 -24 15 6 16 18 1 26 -1 19 -3 -6 -3 -9 -9 -6 -14 3 -6 11
-5 20 2 12 9 12 15 2 28 -12 14 -11 14 5 2 13 -10 15 -17 6 -27 -9 -11 -7 -14
9 -14 14 0 20 5 16 14 -3 8 0 17 7 22 9 5 10 2 6 -9 -3 -10 -2 -17 2 -17 5 0
11 5 13 12 2 6 12 -4 21 -23 9 -19 17 -27 17 -19 0 8 9 25 20 38 16 20 23 21
42 12 21 -10 22 -10 5 4 -15 11 -16 19 -8 33 6 10 11 14 11 9 0 -5 7 -3 15 4
8 6 18 9 23 6 5 -3 8 10 8 28 -1 24 -5 33 -15 31 -8 -1 -17 -7 -19 -14 -2 -6
2 -10 8 -9 7 2 15 -3 18 -11 3 -10 0 -12 -12 -8 -11 4 -23 -3 -38 -23 -11 -16
-26 -26 -31 -23 -6 4 -7 1 -2 -7 5 -9 4 -11 -3 -6 -7 4 -10 2 -6 -7 3 -8 -2
-19 -9 -26 -12 -9 -16 -8 -20 4 -4 8 -1 14 5 12 7 -1 13 4 14 11 1 6 2 13 4
15 1 1 3 10 5 20 2 11 7 22 11 25 4 4 4 -1 1 -10 -3 -10 -2 -20 2 -23 11 -6
23 23 16 36 -4 5 0 6 8 3 8 -3 14 2 16 11 1 8 2 23 3 33 2 13 9 18 25 16 31
-3 43 -12 36 -29 -3 -8 -1 -15 5 -15 6 0 9 8 7 18 -2 9 -4 17 -5 17 -1 0 -3
10 -6 23 -2 13 0 21 5 18 10 -7 28 12 33 34 2 8 7 18 13 22 5 4 -10 5 -35 3
-26 -2 -39 -1 -31 4 11 7 11 9 0 14 -8 3 -4 4 9 4 12 -1 22 -5 22 -10 0 -5 6
-4 13 2 8 6 18 7 22 3 5 -4 5 -1 1 6 -4 7 -11 10 -16 7 -4 -3 -19 -1 -32 5
l-23 10 25 -3 c16 -1 24 3 22 11 -1 6 3 12 9 12 5 0 7 5 4 10 -4 6 -15 8 -24
5 -13 -4 -21 3 -30 22 l-12 28 21 -25 20 -25 0 28 c0 16 -4 26 -10 22 -5 -3
-10 -1 -10 5 0 6 6 10 13 9 6 -1 23 3 37 9 18 8 20 11 8 11 -10 1 -18 6 -18
11 0 6 -4 10 -9 10 -6 0 -8 -9 -6 -20 2 -11 0 -18 -5 -15 -5 3 -7 14 -5 25 2
12 -5 26 -18 35 -20 14 -13 21 16 16 4 0 7 8 7 19 0 11 -4 20 -9 20 -5 0 -12
7 -15 16 -3 8 -2 12 4 9 6 -3 10 -1 10 4 0 6 5 11 11 11 8 0 7 -6 -2 -17 -12
-14 -12 -16 0 -8 9 5 12 4 8 -2 -4 -6 0 -18 7 -28 10 -14 15 -15 21 -5 5 9 4
11 -3 6 -7 -4 -12 -2 -12 3 0 6 6 11 13 11 6 0 4 5 -6 11 -9 6 -14 15 -11 21
10 15 -18 29 -33 16 -9 -7 -13 -7 -13 1 0 6 5 11 11 11 8 0 7 5 -1 16 -11 12
-11 15 -1 12 8 -2 15 5 16 15 3 18 -10 24 -18 7 -3 -6 -4 -5 -3 2 2 7 9 13 17
13 8 0 13 -6 11 -13 -3 -16 33 1 44 21 5 9 4 9 -7 0 -13 -13 -38 -19 -26 -6 4
3 1 13 -6 21 -10 13 -8 14 13 9 14 -4 19 -4 13 -1 -7 3 -13 10 -13 15 0 6 6 7
13 3 6 -4 -1 7 -17 24 -17 18 -26 32 -20 32 5 0 3 4 -5 9 -12 8 -12 12 -2 24
10 13 9 17 -6 26 -11 6 -13 11 -5 11 7 0 11 4 7 9 -3 5 -1 12 4 16 5 3 8 14 6
25 -2 11 0 22 5 25 5 3 7 -3 5 -14 -3 -14 1 -18 12 -14 12 5 12 7 1 14 -7 5
-9 9 -4 9 5 0 3 7 -4 15 -14 17 0 21 16 5 7 -7 11 -6 11 4 0 8 -4 13 -9 10 -4
-3 -8 0 -8 5 0 6 5 11 12 11 6 0 8 3 5 6 -4 4 -13 1 -22 -6 -13 -10 -15 -9
-16 9 -1 11 -2 27 -3 34 -1 6 8 11 19 9 18 -2 18 -1 3 8 -9 6 -15 17 -12 25 6
13 -11 20 -38 16 -12 -1 -4 38 8 43 8 3 10 -3 6 -17 -3 -12 -1 -19 3 -15 4 4
17 3 29 -3 20 -10 20 -9 2 5 -10 8 -18 27 -18 41 0 14 -5 25 -10 25 -5 0 -6
-5 -3 -11 4 -6 -2 -5 -14 3 -12 7 -17 14 -11 16 14 5 2 22 -13 18 -7 -1 -9 -1
-4 1 4 3 4 10 1 15 -4 7 -2 8 4 4 7 -4 12 -3 12 1 0 13 -56 43 -66 35 -4 -4
-2 1 5 11 11 14 11 20 1 32 -7 9 -15 13 -18 10 -9 -9 -32 17 -25 29 11 17 12
37 2 30 -5 -3 -7 -10 -4 -15 12 -19 -7 -8 -35 20 -16 16 -26 32 -22 36 4 5 2
5 -4 2 -6 -4 -22 2 -34 13 -12 11 -27 17 -31 14 -5 -3 -9 0 -9 5 0 6 -8 11
-18 11 -10 0 -22 3 -26 7 -4 4 -177 8 -384 9 -438 2 -412 1 -412 15 0 5 5 7
12 3 6 -4 8 -3 4 4 -3 5 0 13 6 15 10 4 10 6 1 6 -18 1 -16 21 1 21 8 0 17 4
20 9 4 5 -4 7 -16 3 l-23 -5 20 24 c13 16 14 19 3 11 -14 -11 -18 -10 -27 5
-5 11 -6 25 -1 33 6 10 9 7 13 -11 4 -24 4 -24 6 -1 0 13 5 21 9 18 5 -3 9 1
9 9 0 10 -4 12 -12 5 -17 -14 -27 0 -12 18 8 11 9 14 0 9 -8 -5 -11 0 -10 13
1 11 5 20 9 20 4 0 8 5 8 11 0 6 -5 7 -12 2 -7 -4 -21 -9 -32 -10 -15 -3 -16
0 -7 11 17 21 2 49 -23 42 -19 -5 -20 -4 -3 8 18 14 24 32 7 21 -5 -3 -10 -1
-10 4 0 6 8 11 18 11 9 1 3 7 -16 15 -21 9 -31 19 -26 26 4 7 3 9 -4 5 -6 -3
-19 5 -30 19 -11 13 -22 21 -26 18 -3 -3 -6 -2 -6 3 0 5 -20 9 -45 9 -25 0
-45 -4 -45 -8 0 -5 -5 -5 -11 -2 -9 6 -57 15 -60 11z m243 -100 c-3 -5 -9 0
-15 10 -10 17 -11 17 -19 -1 -7 -17 -8 -17 -4 3 3 16 0 22 -8 19 -6 -3 -13 4
-13 15 -2 17 2 16 31 -9 18 -15 31 -32 28 -37z m32 -55 c3 -5 -1 -14 -8 -20
-12 -10 -14 -9 -11 6 2 10 4 19 4 21 2 5 10 2 15 -7z m31 -51 c3 -5 -1 -10
-10 -10 -9 0 -13 5 -10 10 3 6 8 10 10 10 2 0 7 -4 10 -10z m2 -47 c0 -7 -4
-13 -8 -13 -4 0 -6 -9 -4 -20 2 -11 0 -22 -6 -25 -5 -4 -9 -11 -9 -17 0 -7 6
-6 15 2 17 14 17 15 19 -29 1 -19 -3 -35 -11 -38 -7 -3 -10 -9 -7 -14 3 -5 1
-9 -4 -9 -6 0 -13 7 -16 16 -3 8 -2 13 3 10 5 -3 12 1 15 10 4 11 2 15 -7 11
-9 -3 -13 4 -11 27 1 17 2 31 4 31 1 0 3 15 5 34 3 25 -2 39 -18 53 -22 18
-22 18 9 1 17 -9 31 -22 31 -30z m-37 -32 c0 -6 -4 -12 -8 -15 -5 -3 -9 1 -9
9 0 8 4 15 9 15 4 0 8 -4 8 -9z m800 -426 c0 -5 -5 -3 -10 5 -5 8 -10 20 -10
25 0 6 5 3 10 -5 5 -8 10 -19 10 -25z m-705 13 c5 4 5 1 1 -6 -6 -10 -11 -10
-22 -1 -8 6 -14 14 -14 16 0 3 6 0 13 -6 8 -6 18 -7 22 -3z m356 -7 c-10 -18
-6 -31 11 -31 5 0 7 4 3 9 -3 5 0 13 7 17 7 4 10 4 6 -1 -4 -4 -3 -14 4 -22 8
-11 8 -17 -2 -26 -10 -10 -12 -8 -6 8 6 15 4 17 -5 8 -20 -20 -1 -33 29 -17
24 12 28 12 34 -4 6 -16 7 -16 7 1 1 9 6 16 13 15 11 -3 13 1 17 35 1 8 4 7
11 -3 6 -10 4 -23 -6 -40 -12 -19 -8 -18 15 8 31 32 51 41 51 22 0 -5 -4 -9
-9 -7 -5 1 -9 -2 -9 -7 0 -5 -6 -12 -12 -16 -8 -5 -7 -9 4 -13 9 -4 15 -1 13
5 -1 6 4 13 12 16 9 3 11 0 6 -9 -5 -8 -4 -11 1 -6 5 5 9 14 9 20 1 7 6 11 13
10 7 -2 12 2 12 7 0 6 -6 10 -14 10 -8 0 -18 5 -21 11 -4 5 10 3 30 -5 29 -12
36 -13 32 -3 -3 8 0 14 7 14 10 0 13 -19 7 -46 -1 -2 -7 2 -15 8 -10 8 -16 9
-21 1 -3 -6 -10 -8 -14 -6 -8 5 -8 -50 1 -59 3 -3 5 2 5 12 0 35 3 44 13 38 6
-4 8 -10 6 -14 -3 -4 1 -8 9 -8 8 0 12 4 9 9 -3 4 -1 8 4 8 6 0 15 14 21 30 5
17 13 30 17 30 3 0 4 -7 0 -15 -7 -18 3 -47 14 -40 5 3 7 13 5 23 -1 9 0 11 2
5 6 -16 9 -16 36 2 21 13 23 13 23 -3 1 -9 4 -25 9 -34 4 -11 3 -18 -5 -18 -6
0 -9 4 -6 9 3 4 -1 17 -10 27 -14 18 -15 18 -4 -3 6 -13 8 -23 4 -23 -4 0 0
-8 8 -17 13 -15 15 -67 14 -355 -1 -336 -1 -338 -23 -360 -23 -23 -60 -27
-233 -27 -30 0 -91 -1 -135 -1 -44 0 -86 -1 -92 0 -15 0 -38 0 -55 0 -7 -1
-73 1 -147 3 -103 2 -136 6 -139 17 -3 8 1 11 9 8 8 -3 23 -2 34 3 18 7 18 8
2 8 -10 1 -16 5 -12 10 3 5 1 12 -5 16 -20 12 -10 32 15 30 14 -2 23 1 20 5
-3 5 -12 7 -21 3 -9 -3 -14 0 -12 7 2 7 -4 15 -12 17 -12 3 -12 2 -2 -5 11 -7
11 -11 0 -19 -27 -20 -34 -21 -34 -3 0 13 4 16 12 9 8 -7 12 -2 12 16 0 20 -3
23 -14 14 -8 -6 -14 -7 -14 -3 0 5 9 15 20 22 11 7 19 9 18 5 -2 -5 0 -9 5
-10 16 -6 27 -3 27 8 0 5 -5 7 -10 4 -6 -3 -13 1 -16 10 -6 14 -8 14 -26 -2
-16 -15 -18 -15 -13 -1 9 22 37 32 47 16 5 -9 8 -10 8 -1 0 6 -4 14 -9 18 -13
8 -7 50 10 72 13 16 12 17 -3 4 -11 -8 -18 -9 -18 -3 0 6 5 14 10 17 8 5 7 11
-1 21 -9 11 -8 18 2 32 7 9 9 14 5 10 -14 -12 -36 25 -24 39 13 15 -4 17 -18
3 -7 -7 -11 -6 -11 5 0 8 3 13 5 10 3 -3 11 0 19 6 12 11 18 2 14 -23 0 -5 3
-8 9 -8 14 0 13 23 -2 38 -7 7 -8 12 -4 12 5 0 1 11 -7 24 -14 21 -15 25 -1
30 8 3 13 2 10 -2 -2 -4 -1 -14 3 -21 6 -9 9 -5 9 13 0 26 -17 30 -45 13 -7
-5 -13 -4 -13 0 0 5 9 14 21 21 17 11 20 11 13 0 -4 -7 -4 -10 0 -6 4 3 6 8 4
11 -1 2 4 12 12 22 8 11 10 16 3 12 -6 -4 -13 -2 -15 4 -3 9 -10 9 -27 -1 -13
-6 -21 -8 -17 -2 3 5 19 15 35 22 28 11 47 37 36 48 -3 3 -5 0 -5 -7 0 -7 -5
-9 -10 -6 -8 5 -7 11 0 20 14 17 4 36 -14 29 -8 -3 -17 0 -21 5 -3 6 -12 8
-18 5 -8 -4 -7 -2 1 7 11 12 14 12 22 -1 5 -8 12 -11 16 -7 4 3 1 14 -7 23
-11 14 -11 18 5 29 9 7 17 17 17 22 -1 4 2 16 5 26 6 18 24 24 24 6 0 -5 5 -7
10 -4 6 4 8 10 5 15 -3 5 0 12 6 16 8 4 9 3 5 -4 -4 -7 -2 -12 3 -12 10 0 15
14 12 33 0 4 4 7 9 7 12 0 13 -10 0 -30 -6 -9 -5 -17 3 -23 7 -5 1 -5 -13 -1
-29 7 -26 2 9 -16 17 -9 21 -9 16 0 -9 14 26 10 38 -5 5 -6 6 -2 3 8 -4 12 -2
17 6 15 7 -3 13 -13 13 -23 0 -19 31 -30 40 -15 3 5 -4 7 -15 5 -24 -5 -25 3
-5 25 15 16 12 17 -35 15 -47 -2 -59 3 -44 18 4 4 12 3 18 0 16 -10 46 -11 46
-1 0 4 -9 8 -19 8 -11 0 -22 3 -24 8 -3 4 8 7 23 7 16 0 28 -2 28 -5 -1 -19 4
-27 17 -27 9 0 14 6 11 14 -8 21 2 15 15 -8 9 -17 8 -20 -2 -14 -7 5 -10 4 -5
-3 3 -5 1 -12 -6 -14 -7 -3 -5 -7 6 -11 11 -5 15 -3 10 5 -5 8 -2 9 10 5 14
-6 15 -3 5 14 -12 24 -4 38 13 21 17 -17 28 -15 29 6 0 16 1 16 8 -1 4 -10 11
-18 16 -17 20 2 45 -8 45 -19 0 -7 -10 -5 -25 5 -14 9 -25 12 -25 8 0 -5 12
-14 26 -21 20 -9 26 -9 31 3 3 7 9 12 13 9 4 -3 13 2 19 9 9 11 9 14 -1 12 -7
-1 -19 -5 -25 -9 -9 -6 -11 -3 -6 9 4 12 3 15 -5 10 -7 -4 -12 -2 -12 3 0 14
6 14 30 1 15 -8 21 -6 30 10 6 11 13 20 16 20 2 0 0 -8 -5 -19z m-84 -5 c0 -8
-6 -12 -15 -9 -11 5 -11 7 0 14 7 5 13 9 14 9 0 0 1 -6 1 -14z m-642 -5 c8
-14 -10 -22 -30 -15 -13 5 -14 8 -3 15 17 11 26 11 33 0z m808 -6 c21 13 23
13 23 -3 0 -13 -8 -18 -26 -18 -25 0 -40 11 -40 31 1 6 5 2 11 -7 9 -16 12
-16 32 -3z m592 -23 c-3 -3 -11 0 -18 7 -9 10 -8 11 6 5 10 -3 15 -9 12 -12z
m-1402 -22 c3 -10 2 -19 -2 -18 -18 2 -24 -3 -13 -11 11 -7 11 -9 0 -14 -11
-4 -14 3 -12 27 2 36 1 36 13 36 5 0 11 -9 14 -20z m317 5 c0 -7 -30 -13 -34
-7 -3 4 4 9 15 9 10 1 19 0 19 -2z m1095 -104 c-9 -8 -36 -10 -30 -2 2 4 11 8
20 8 8 0 13 -3 10 -6z m-1090 -22 c-6 -9 -45 -8 -45 2 0 4 11 7 25 7 13 0 22
-4 20 -9z m1100 1 c-3 -5 -12 -10 -18 -10 -7 0 -6 4 3 10 19 12 23 12 15 0z
m-1102 -33 c-2 -4 -5 -6 -6 -4 -2 1 -12 -5 -23 -13 -17 -14 -18 -14 -6 2 10
13 10 17 0 21 -7 3 -2 4 12 3 14 -2 24 -6 23 -9z m1114 -2 c0 -8 -4 -15 -9
-15 -4 0 -8 7 -8 15 0 8 4 15 8 15 5 0 9 -7 9 -15z m-19 -40 c-3 -3 -9 2 -12
12 -6 14 -5 15 5 6 7 -7 10 -15 7 -18z m-1099 -18 c-2 -1 -12 -9 -22 -16 -15
-12 -17 -12 -11 3 3 9 13 16 22 16 8 0 13 -1 11 -3z m1096 -7 c-3 -5 -14 -10
-23 -9 -14 0 -13 2 3 9 27 11 27 11 20 0z m0 -60 c-3 -5 -12 -10 -18 -10 -7 0
-6 4 3 10 19 12 23 12 15 0z m-1110 -20 c18 -20 18 -21 0 -14 -13 5 -16 4 -11
-4 4 -7 3 -12 -2 -12 -6 0 -9 11 -8 25 0 14 1 25 2 25 0 0 9 -9 19 -20z m1110
-20 c3 -5 1 -10 -4 -10 -6 0 -11 5 -11 10 0 6 2 10 4 10 3 0 8 -4 11 -10z m31
-59 c-13 -14 -13 -20 -3 -30 9 -10 8 -11 -5 -6 -19 7 -25 35 -8 35 5 0 7 7 3
16 -5 13 -7 13 -14 2 -5 -7 -9 -8 -9 -2 0 19 12 24 32 13 18 -10 18 -12 4 -28z
m-1142 -22 c-3 -5 0 -9 6 -9 6 0 8 -5 4 -12 -6 -9 -9 -9 -12 0 -2 7 -7 10 -11
8 -4 -3 -7 4 -7 14 0 10 6 16 13 13 7 -3 10 -9 7 -14z m10 -66 c-12 -9 -15
-16 -9 -21 16 -11 12 -47 -4 -44 -9 2 -11 -3 -7 -13 3 -9 2 -13 -3 -10 -6 3
-9 14 -8 25 1 14 4 16 14 8 14 -12 16 -8 7 16 -3 9 -9 14 -13 12 -4 -3 -7 4
-7 14 0 10 3 17 7 14 4 -2 10 3 13 12 3 8 11 12 17 8 8 -5 6 -11 -7 -21z
m1101 -153 c3 -5 1 -10 -4 -10 -6 0 -11 5 -11 10 0 6 2 10 4 10 3 0 8 -4 11
-10z m-1089 -93 c1 -9 -2 -15 -7 -11 -5 3 -6 10 -3 16 5 7 1 9 -9 5 -10 -3
-17 -2 -17 4 0 18 33 5 36 -14z m-41 -7 c3 -6 -1 -7 -9 -4 -18 7 -21 14 -7 14
6 0 13 -4 16 -10z m1162 -34 c0 -8 -6 -12 -15 -9 -11 5 -11 7 0 14 7 5 13 9
14 9 0 0 1 -6 1 -14z m3 -96 c-5 -10 -15 -17 -22 -16 -22 3 -39 17 -32 27 3 5
9 7 14 4 5 -3 11 -1 15 4 3 6 12 8 20 5 11 -5 12 -11 5 -24z m-44 -32 c10 -13
12 -18 5 -11 -7 6 -19 10 -25 9 -6 -2 -8 -1 -3 1 4 3 5 9 1 14 -10 17 3 9 22
-13z m-211 -126 c-3 -3 -11 0 -18 7 -9 10 -8 11 6 5 10 -3 15 -9 12 -12z m36
1 c13 -16 12 -17 -3 -4 -10 7 -18 15 -18 17 0 8 8 3 21 -13z m55 -12 c0 -12
-6 -17 -18 -13 -18 4 -18 5 -1 18 10 7 18 14 18 14 1 0 1 -8 1 -19z m-1135 -8
c13 -16 12 -17 -3 -4 -17 13 -22 21 -14 21 2 0 10 -8 17 -17z m39 11 c0 -8
-19 -13 -24 -6 -3 5 1 9 9 9 8 0 15 -2 15 -3z m89 -28 c-3 -3 -11 5 -18 17
-13 21 -12 21 5 5 10 -10 16 -20 13 -22z m51 30 c0 -2 -8 -10 -17 -17 -16 -13
-17 -12 -4 4 13 16 21 21 21 13z m70 -31 c0 -5 -5 -3 -10 5 -5 8 -10 20 -10
25 0 6 5 3 10 -5 5 -8 10 -19 10 -25z m530 31 c0 -2 -8 -10 -17 -17 -16 -13
-17 -12 -4 4 13 16 21 21 21 13z m-385 -25 c3 -5 2 -12 -3 -15 -5 -3 -9 1 -9
9 0 17 3 19 12 6z m265 -1 c0 -5 -5 -10 -11 -10 -5 0 -7 5 -4 10 3 6 8 10 11
10 2 0 4 -4 4 -10z m70 0 c0 -5 -2 -10 -4 -10 -3 0 -8 5 -11 10 -3 6 -1 10 4
10 6 0 11 -4 11 -10z m-560 -21 c0 -5 -4 -8 -9 -4 -5 3 -16 -1 -24 -9 -8 -8
-17 -12 -21 -9 -7 7 24 32 42 33 6 0 12 -5 12 -11z"/>
<path d="M1790 2185 c-10 -12 -10 -15 2 -15 8 0 15 7 15 15 0 8 -1 15 -2 15
-2 0 -8 -7 -15 -15z"/>
<path d="M2072 1778 c10 -9 18 -21 18 -27 0 -5 4 -13 10 -16 7 -4 7 2 1 18 -6
14 -7 28 -3 33 4 4 1 4 -6 0 -7 -4 -19 -4 -25 1 -7 4 -5 1 5 -9z"/>
<path d="M2202 1770 c-7 -11 -8 -20 -3 -20 9 0 24 30 18 36 -1 2 -8 -6 -15
-16z"/>
<path d="M2559 1773 c-8 -9 -9 -14 -2 -10 7 4 13 0 16 -10 3 -10 4 -6 4 10 -2
32 -1 32 -18 10z"/>
<path d="M1829 1760 c-1 -6 -3 -14 -4 -20 -1 -5 -3 -15 -4 -21 0 -5 -6 -7 -12
-3 -15 9 5 -29 24 -44 11 -9 14 -8 14 3 0 8 -4 12 -7 10 -4 -3 -7 7 -7 20 0
14 3 25 8 25 5 0 9 -6 9 -14 0 -8 5 -18 12 -22 7 -4 8 -3 4 5 -4 6 -4 20 -1
31 5 17 10 18 28 10 19 -9 19 -9 -2 7 -28 20 -60 27 -62 13z m33 -19 c-4 -10
-7 -11 -10 -3 -2 7 -9 9 -14 6 -6 -4 -8 -3 -5 3 10 16 36 11 29 -6z"/>
<path d="M2505 1760 c-4 -6 -3 -10 2 -9 21 4 34 -2 27 -13 -4 -7 -3 -8 4 -4
16 10 15 14 -7 26 -14 7 -22 7 -26 0z"/>
<path d="M2260 1746 c0 -2 7 -6 15 -10 8 -3 15 -1 15 4 0 6 -7 10 -15 10 -8 0
-15 -2 -15 -4z"/>
<path d="M2350 1740 c0 -5 7 -7 15 -4 8 4 15 8 15 10 0 2 -7 4 -15 4 -8 0 -15
-4 -15 -10z"/>
<path d="M1875 1721 c-3 -5 -2 -12 3 -15 5 -3 9 1 9 9 0 17 -3 19 -12 6z"/>
<path d="M1850 1620 c0 -5 5 -10 11 -10 5 0 7 5 4 10 -3 6 -8 10 -11 10 -2 0
-4 -4 -4 -10z"/>
<path d="M1820 1576 c0 -2 7 -7 16 -10 8 -3 12 -2 9 4 -6 10 -25 14 -25 6z"/>
<path d="M1837 1543 c-11 -11 -8 -21 9 -27 13 -5 14 -4 6 7 -7 8 -9 17 -5 20
3 4 4 7 1 7 -2 0 -8 -3 -11 -7z"/>
<path d="M1837 1453 c-10 -9 -9 -23 1 -23 5 0 9 7 9 15 0 17 -1 18 -10 8z"/>
<path d="M1831 1380 c-9 -5 -4 -7 13 -7 29 0 32 2 13 10 -8 3 -20 2 -26 -3z"/>
<path d="M1830 1331 c0 -5 7 -12 16 -15 14 -5 15 -4 4 9 -14 17 -20 19 -20 6z"/>
<path d="M1834 1258 c-4 -5 -3 -12 0 -15 3 -4 6 -1 6 6 0 7 4 10 9 6 5 -3 12
-2 15 3 3 5 -2 9 -10 9 -8 0 -17 -4 -20 -9z"/>
<path d="M2915 920 c-4 -6 -12 -7 -18 -4 -7 4 -8 3 -4 -1 13 -15 34 -14 34 1
0 17 -4 18 -12 4z"/>
<path d="M1230 2486 c0 -2 7 -7 16 -10 8 -3 12 -2 9 4 -6 10 -25 14 -25 6z"/>
<path d="M1272 2461 c-11 -7 -11 -9 0 -14 9 -3 15 1 15 9 0 8 -1 14 -1 14 -1
0 -7 -4 -14 -9z"/>
<path d="M1310 2440 c0 -5 5 -10 11 -10 5 0 7 5 4 10 -3 6 -8 10 -11 10 -2 0
-4 -4 -4 -10z"/>
<path d="M1781 2413 c-1 -16 29 -44 40 -38 13 9 11 15 -3 13 -7 -2 -12 3 -10
10 1 8 -2 11 -7 8 -5 -4 -12 0 -14 6 -4 9 -6 9 -6 1z"/>
<path d="M1345 2401 c3 -5 0 -11 -7 -13 -6 -2 3 -15 21 -27 25 -18 35 -21 44
-12 9 9 8 10 -7 5 -14 -5 -17 -4 -12 5 4 6 4 11 -1 10 -19 -3 -33 2 -33 12 0
5 5 7 10 4 6 -3 10 -2 10 3 0 6 -7 13 -16 16 -8 3 -13 2 -9 -3z"/>
<path d="M1418 2318 c5 -5 16 -8 23 -6 8 3 3 7 -10 11 -17 4 -21 3 -13 -5z"/>
<path d="M1424 2284 c-18 -14 -18 -15 4 -4 12 6 22 13 22 15 0 8 -5 6 -26 -11z"/>
<path d="M1455 2260 c3 -5 8 -10 11 -10 2 0 4 5 4 10 0 6 -5 10 -11 10 -5 0
-7 -4 -4 -10z"/>
<path d="M1456 2173 c-6 -14 -5 -15 5 -6 7 7 10 15 7 18 -3 3 -9 -2 -12 -12z"/>
<path d="M1472 2132 c-7 -5 -15 -22 -18 -38 -3 -19 -1 -24 4 -16 5 8 13 13 18
13 4 -1 9 10 10 24 0 14 0 25 0 25 -1 0 -7 -4 -14 -8z m5 -27 c0 -8 -4 -12 -9
-9 -5 3 -6 10 -3 15 9 13 12 11 12 -6z"/>
<path d="M2801 1971 c-7 -5 -9 -11 -5 -14 5 -3 15 1 22 9 14 16 5 18 -17 5z"/>
<path d="M2840 1961 c0 -7 -5 -9 -12 -5 -7 5 -8 3 -3 -5 5 -9 10 -10 18 -2 6
6 8 14 4 18 -4 3 -7 1 -7 -6z"/>
<path d="M2861 1941 c-7 -5 -10 -14 -7 -20 4 -6 2 -11 -5 -11 -7 0 -4 -7 7
-15 25 -19 31 -19 38 2 4 10 4 14 0 10 -4 -4 -13 -2 -21 4 -10 9 -10 15 -2 25
13 16 10 17 -10 5z"/>
<path d="M2900 1835 c5 -7 7 -15 3 -19 -4 -4 1 -4 12 0 11 5 14 9 7 12 -7 2
-10 7 -8 11 3 4 -1 8 -9 8 -10 0 -12 -4 -5 -12z"/>
<path d="M2950 1766 c0 -2 7 -7 16 -10 8 -3 12 -2 9 4 -6 10 -25 14 -25 6z"/>
<path d="M2935 1660 c3 -5 14 -10 23 -10 15 0 15 2 2 10 -20 13 -33 13 -25 0z"/>
<path d="M1447 1610 c9 -10 10 -17 2 -27 -8 -9 -8 -13 -1 -13 11 0 10 -38 -2
-58 -4 -6 -2 -21 4 -32 6 -11 8 -26 4 -33 -4 -6 -4 -9 1 -5 4 4 13 3 20 -2 8
-7 12 -5 12 5 0 8 -4 12 -9 9 -5 -3 -7 6 -4 20 3 14 0 29 -6 32 -7 5 -4 12 7
21 11 7 13 13 7 13 -7 0 -12 9 -12 21 0 11 4 18 8 15 4 -2 8 6 8 20 0 15 -3
21 -10 14 -6 -6 -15 -5 -25 2 -13 10 -14 10 -4 -2z m18 -110 c3 -5 1 -10 -4
-10 -6 0 -11 5 -11 10 0 6 2 10 4 10 3 0 8 -4 11 -10z"/>
<path d="M2941 1541 c-17 -11 -23 -39 -10 -47 6 -4 6 -11 -1 -19 -8 -9 -8 -15
0 -20 6 -3 8 -10 6 -14 -3 -4 5 -13 17 -20 12 -8 19 -10 15 -6 -4 5 -2 15 5
24 11 14 10 14 -5 2 -20 -15 -25 -2 -6 17 8 8 9 12 1 12 -6 0 -13 -5 -15 -12
-3 -8 -7 -9 -11 -2 -3 6 3 21 15 34 l21 22 -22 -7 c-22 -7 -22 -6 -6 19 19 28
18 31 -4 17z"/>
<path d="M1477 1393 c-10 -9 -9 -23 1 -23 5 0 9 7 9 15 0 17 -1 18 -10 8z"/>
<path d="M1465 1330 c-3 -6 1 -7 9 -4 18 7 21 14 7 14 -6 0 -13 -4 -16 -10z"/>
<path d="M2934 1295 c-18 -14 -17 -16 6 -19 6 0 15 -8 20 -16 7 -12 9 -10 7 7
0 12 -5 19 -9 17 -4 -3 -8 -1 -8 5 0 5 6 12 13 14 6 3 7 6 1 6 -5 1 -19 -6
-30 -14z"/>
<path d="M1473 1293 c-17 -6 -17 -20 0 -20 8 0 14 6 14 14 0 7 -1 13 -1 12 -1
0 -7 -3 -13 -6z"/>
<path d="M1395 1160 c-3 -5 -1 -10 4 -10 6 0 11 5 11 10 0 6 -2 10 -4 10 -3 0
-8 -4 -11 -10z"/>
<path d="M2920 1156 c15 -15 39 -16 33 -1 -2 8 -13 13 -24 12 -12 -1 -15 -5
-9 -11z"/>
<path d="M1315 1120 c3 -5 8 -10 11 -10 2 0 4 5 4 10 0 6 -5 10 -11 10 -5 0
-7 -4 -4 -10z"/>
<path d="M811 1105 c0 -5 6 -19 14 -29 8 -11 15 -15 15 -10 0 6 -7 19 -15 30
-8 10 -14 15 -14 9z"/>
<path d="M790 1091 c0 -6 4 -13 10 -16 6 -3 7 1 4 9 -7 18 -14 21 -14 7z"/>
<path d="M855 1081 c-4 -7 0 -8 11 -4 11 4 15 3 10 -5 -3 -6 -2 -13 3 -16 5
-4 8 2 7 11 -3 20 -21 28 -31 14z"/>
<path d="M1306 1078 c3 -4 9 -8 15 -8 5 0 9 4 9 8 0 5 -7 9 -15 9 -8 0 -12 -4
-9 -9z"/>
<path d="M575 1060 c3 -5 8 -10 11 -10 2 0 4 5 4 10 0 6 -5 10 -11 10 -5 0 -7
-4 -4 -10z"/>
<path d="M1175 1060 c3 -5 8 -10 11 -10 2 0 4 5 4 10 0 6 -5 10 -11 10 -5 0
-7 -4 -4 -10z"/>
<path d="M1265 1060 c-3 -6 1 -7 9 -4 18 7 21 14 7 14 -6 0 -13 -4 -16 -10z"/>
<path d="M2941 1063 c-1 -17 16 -25 25 -12 4 7 3 9 -4 5 -5 -3 -13 0 -15 6 -4
9 -6 10 -6 1z"/>
<path d="M385 1039 c-3 -4 2 -6 10 -5 21 3 28 13 10 13 -9 0 -18 -4 -20 -8z"/>
<path d="M341 1011 c-17 -13 -19 -18 -7 -18 9 0 16 4 16 8 0 5 6 6 14 3 8 -3
17 -1 21 5 4 7 0 8 -11 4 -12 -4 -15 -3 -10 5 10 16 5 15 -23 -7z"/>
<path d="M376 953 c-6 -14 -5 -15 5 -6 7 7 10 15 7 18 -3 3 -9 -2 -12 -12z"/>
<path d="M375 879 c-4 -6 -5 -12 -2 -15 2 -3 7 2 10 11 7 17 1 20 -8 4z"/>
<path d="M2953 849 c-2 -23 3 -25 10 -4 4 8 3 16 -1 19 -4 3 -9 -4 -9 -15z"/>
<path d="M358 803 c7 -3 16 -2 19 1 4 3 -2 6 -13 5 -11 0 -14 -3 -6 -6z"/>
<path d="M335 780 c4 -6 11 -8 16 -5 14 9 11 15 -7 15 -8 0 -12 -5 -9 -10z"/>
<path d="M374 782 c3 -5 0 -13 -6 -15 -9 -4 -10 -6 -1 -6 17 -1 25 16 12 25
-7 4 -9 3 -5 -4z"/>
<path d="M1553 752 c0 -12 5 -22 9 -22 11 0 10 12 -2 30 -7 12 -9 10 -7 -8z"/>
<path d="M2871 752 c-1 -8 -6 -10 -13 -6 -7 4 -9 3 -5 -2 10 -11 58 -14 51 -2
-3 4 -9 6 -14 3 -4 -3 -11 1 -13 7 -4 10 -6 10 -6 0z"/>
<path d="M1586 742 c2 -3 -2 -12 -9 -21 -11 -14 -10 -15 7 -1 18 14 19 13 12
-5 -6 -16 -5 -18 5 -7 11 10 10 15 -2 26 -9 7 -14 11 -13 8z"/>
<path d="M2815 701 c-3 -5 -2 -12 3 -15 5 -3 9 1 9 9 0 17 -3 19 -12 6z"/>
<path d="M1613 687 c0 -7 9 -13 19 -13 10 0 18 1 18 3 0 1 -8 7 -18 12 -13 7
-19 6 -19 -2z"/>
<path d="M2100 685 c-9 -10 -9 -15 -1 -15 6 0 11 5 11 11 0 6 7 4 15 -5 17
-17 41 -12 49 10 4 10 2 13 -7 7 -18 -11 -37 -12 -37 -2 0 14 -16 11 -30 -6z"/>
<path d="M2507 685 c-16 -11 -15 -12 8 -12 14 0 25 3 25 8 0 15 -15 17 -33 4z"/>
<path d="M2556 691 c-4 -7 -5 -15 -2 -18 9 -9 19 4 14 18 -4 11 -6 11 -12 0z"/>
<path d="M76 674 c-5 -13 -4 -14 7 -6 8 7 18 8 22 4 5 -4 5 -1 1 6 -10 17 -23
15 -30 -4z"/>
<path d="M1884 682 c4 -7 2 -12 -3 -12 -6 0 -11 -4 -11 -10 0 -15 17 -12 23 5
4 8 1 17 -5 21 -7 4 -8 3 -4 -4z"/>
<path d="M2258 673 c-6 -8 -8 -16 -5 -20 4 -3 9 1 13 10 6 16 37 15 58 -2 8
-7 12 -4 13 12 2 15 0 18 -6 8 -6 -8 -11 -9 -15 -3 -9 14 -45 11 -58 -5z"/>
<path d="M2364 682 c4 -7 2 -12 -3 -12 -6 0 -11 -4 -11 -10 0 -15 17 -12 23 5
4 8 1 17 -5 21 -7 4 -8 3 -4 -4z"/>
<path d="M2650 679 c0 -4 7 -10 16 -13 8 -3 12 -11 8 -17 -4 -8 -3 -9 5 -5 8
6 9 12 2 20 -6 7 -9 15 -6 18 3 2 -2 5 -10 5 -8 0 -15 -4 -15 -8z"/>
<path d="M2735 680 c3 -5 8 -10 11 -10 2 0 4 5 4 10 0 6 -5 10 -11 10 -5 0 -7
-4 -4 -10z"/>
<path d="M354 654 c4 -9 1 -24 -6 -33 -11 -14 -11 -14 4 -3 17 14 21 52 5 52
-5 0 -6 -7 -3 -16z"/>
<path d="M1680 666 c0 -2 7 -7 16 -10 8 -3 12 -2 9 4 -6 10 -25 14 -25 6z"/>
<path d="M1790 660 c0 -5 6 -9 13 -7 6 1 11 -3 10 -8 -1 -6 7 -11 18 -11 19 0
18 1 -3 18 -26 20 -38 23 -38 8z"/>
<path d="M1906 662 c-3 -5 1 -9 9 -9 8 0 12 4 9 9 -3 4 -7 8 -9 8 -2 0 -6 -4
-9 -8z"/>
<path d="M2715 660 c-3 -5 -1 -10 4 -10 6 0 11 5 11 10 0 6 -2 10 -4 10 -3 0
-8 -4 -11 -10z"/>
<path d="M1954 648 c10 -6 22 -6 26 -2 5 5 -3 10 -18 11 -22 1 -24 0 -8 -9z"/>
<path d="M2010 651 c0 -6 4 -13 10 -16 6 -3 7 1 4 9 -7 18 -14 21 -14 7z"/>
<path d="M2038 653 c7 -3 16 -2 19 1 4 3 -2 6 -13 5 -11 0 -14 -3 -6 -6z"/>
<path d="M2078 653 c7 -3 16 -2 19 1 4 3 -2 6 -13 5 -11 0 -14 -3 -6 -6z"/>
<path d="M2171 644 c0 -11 3 -14 6 -6 3 7 2 16 -1 19 -3 4 -6 -2 -5 -13z"/>
<path d="M2430 649 c0 -5 -5 -7 -12 -3 -7 4 -8 3 -4 -5 6 -9 11 -9 22 0 17 14
18 19 4 19 -5 0 -10 -5 -10 -11z"/>
<path d="M2514 648 c10 -6 22 -6 26 -2 5 5 -3 10 -18 11 -22 1 -24 0 -8 -9z"/>
<path d="M2573 643 c0 -9 6 -9 21 -1 30 15 30 16 3 14 -13 0 -24 -6 -24 -13z"/>
<path d="M260 632 c-23 -19 -26 -19 -44 -4 -11 9 -16 11 -12 4 4 -7 2 -21 -5
-30 -11 -14 -11 -15 1 -4 19 16 30 15 30 -2 0 -20 17 -29 26 -15 4 8 3 9 -4 5
-7 -4 -12 0 -12 10 0 10 3 14 7 11 3 -4 15 0 25 10 20 18 25 4 6 -15 -9 -9 -9
-12 0 -12 7 0 12 5 12 11 0 5 4 7 10 4 6 -4 7 1 3 12 -6 16 -5 17 13 3 18 -14
18 -14 5 2 -7 10 -17 16 -21 13 -5 -3 -10 0 -12 6 -2 6 -13 3 -28 -9z"/>
<path d="M300 580 c-9 -6 -10 -10 -3 -10 6 0 15 5 18 10 8 12 4 12 -15 0z"/>
<path d="M330 580 c0 -5 5 -10 11 -10 5 0 7 5 4 10 -3 6 -8 10 -11 10 -2 0 -4
-4 -4 -10z"/>
</g>
</svg>
